<svg width="400" height="400" viewBox="0 0 400 400" fill="none" xmlns="http://www.w3.org/2000/svg">
  <defs>
    <linearGradient id="logoGradient" x1="0%" y1="0%" x2="100%" y2="100%">
      <stop offset="0%" style="stop-color:#00D4FF;stop-opacity:1" />
      <stop offset="50%" style="stop-color:#0099FF;stop-opacity:1" />
      <stop offset="100%" style="stop-color:#6B5FFF;stop-opacity:1" />
    </linearGradient>
  </defs>

  <!-- Top dot -->
  <circle cx="224" cy="31" r="13" fill="url(#logoGradient)"/>

  <!-- Flask shape with gradient stroke -->
  <path d="M 135 68 L 135 78 C 135 85 140 88 147 88 L 147 88 L 147 145 C 147 145 72 240 72 295 C 72 340 100 358 200 358 C 300 358 328 340 328 295 C 328 240 253 145 253 145 L 253 88 C 260 88 265 85 265 78 L 265 68 C 265 63 261 60 256 60 L 144 60 C 139 60 135 63 135 68 Z"
        stroke="url(#logoGradient)"
        stroke-width="16"
        stroke-linecap="round"
        stroke-linejoin="round"
        fill="none"/>

  <!-- Inner horizontal line -->
  <line x1="95" y1="265" x2="230" y2="265"
        stroke="url(#logoGradient)"
        stroke-width="14"
        stroke-linecap="round"/>

  <!-- Top bubble -->
  <circle cx="197" cy="145" r="11" fill="url(#logoGradient)"/>

  <!-- Bottom bubble -->
  <circle cx="185" cy="213" r="11" fill="url(#logoGradient)"/>
</svg>
